<?xml version="1.0" encoding="utf-8"?>
<!-- Uploaded to: SVG Repo, www.svgrepo.com, Generator: SVG Repo Mixer Tools -->
<svg width="800px" height="800px" viewBox="0 0 1024 1024" class="icon"  version="1.1" xmlns="http://www.w3.org/2000/svg"><path d="M760.1 416.8c-21.2 0-41.6 4-60.5 11.2-9.7-112.7-99-201-207.6-201-105.4 0-192.4 83-206.5 190.8-5.9-0.6-11.9-1-17.9-1-98.7 0-178.8 85-178.8 189.8 0 104.9 77.9 190.3 176.6 190.3 1.7 0 8.6-0.3 11.5-0.5h-1.3v-0.2c3.3 0 3.1 0.1 1.3 0.2l444.6 0.6c13 0 24.7-0.6 38.7-0.6 98.7 0 178.8-85 178.8-189.8-0.1-104.8-80.2-189.8-178.9-189.8z" fill="#00B36A" /><path d="M109.9 517.2c-13.4 26.7-21.1 57.1-21.1 89.5 0 104.9 77.9 190.3 176.6 190.3 1.7 0 8.6-0.3 11.5-0.5h-1.3v-0.2c3.3 0 3.1 0.1 1.3 0.2l444.6 0.6c5.9 0 11.6-0.1 17.4-0.2l1.7-2.4c-368.3-0.1-566.2-40.7-630.7-277.3z" fill="#009957" /><path d="M721.4 818.7l-443.9-0.6c-1.1 0.1-2.5 0.1-4 0.2-3.3 0.1-6.9 0.3-8.1 0.3-53.7 0-103.9-22.3-141.2-62.8-36.8-39.8-57-92.8-57-149.2 0-116.6 89.8-211.4 200.3-211.5C290.6 285.6 384 205.3 492 205.3c58 0 113.4 22.9 156 64.4 35.8 34.9 60 80.4 69.5 130.3 13.9-3.2 28.2-4.8 42.6-4.8 33.3 0 66.3 8.8 95.4 25.4 10.4 5.9 14 19.2 8 29.5-5.9 10.4-19.2 14-29.5 8-22.6-12.9-48.1-19.7-73.9-19.7-18.1 0-35.8 3.3-52.8 9.8l-26.8 10.3-2.5-28.6c-8.9-103.3-88.9-181.2-186.1-181.2-92.7 0-172.2 73.9-185 172l-2.7 20.9-21-2.2c-5.2-0.6-10.5-0.8-15.7-0.8-86.6 0-157.1 75.5-157.1 168.2 0 88.8 63.4 161.8 143.5 168.2l21.7-0.2h2.7c0.8 0 1.6 0.1 2.4 0.2l440.8 0.5c6.2 0 12.1-0.1 18.1-0.3 6.5-0.1 13.2-0.3 20.6-0.3 74.2 0 138.9-56.4 153.9-134 2.3-11.7 13.6-19.4 25.4-17.2 11.7 2.3 19.4 13.6 17.2 25.4C937.6 747 855 818.2 760.1 818.2c-7 0-13.3 0.1-19.6 0.3-6.3 0.1-12.5 0.2-19.1 0.2z" fill="#1A1A1A" /><path d="M469.8 621.7c0 5.7-1.1 11.8-3.3 18.4-2.2 6.6-5.7 13.1-10.4 19.5s-10.8 11.5-18.1 15.5c-7.3 4-15.9 6-25.7 6-7.4 0-14.1-0.9-20.2-2.7-6.1-1.8-11.6-4.6-16.5-8.3-4.9-3.8-9.5-8.7-13.6-14.9-3.7-5.6-6.9-11.9-9.5-18.8-2.6-6.9-4.6-14.3-5.9-22.2-1.3-7.9-2-16.2-2-25.1 0-14.4 1.6-27.2 4.9-38.6 3.3-11.4 8-21.1 14.1-29.1 6.1-8.1 13.3-14.2 21.5-18.4 8.2-4.2 17-6.3 26.3-6.3 11.4 0 21.5 2.9 30.4 8.6 8.9 5.8 15.7 12.9 20.4 21.4 4.7 8.5 7.1 16.5 7.1 24 0 4.1-1.2 7.8-3.4 11s-5.1 4.7-8.3 4.7c-3.6 0-6.4-1.1-8.2-3.3-1.8-2.2-3.8-6-6.1-11.3-3.7-8.8-8.1-15.5-13.1-19.8-5-4.4-11.2-6.6-18.5-6.6-11.7 0-21 5.6-27.9 16.9-6.9 11.3-10.4 27.3-10.4 48.1 0 13.9 1.5 25.4 4.6 34.6 3.1 9.2 7.4 16.1 13 20.6s12.2 6.8 19.7 6.8c8.2 0 15.1-2.6 20.7-7.7 5.6-5.2 9.9-12.7 12.8-22.7 1.2-4.7 2.7-8.5 4.5-11.5 1.8-3 4.7-4.4 8.6-4.4 3.4 0 6.3 1.5 8.7 4.5 2.6 2.9 3.8 6.6 3.8 11.1zM557.1 496.6c14.6 0 27.1 3.8 37.5 11.3 10.4 7.5 18.3 18.2 23.7 32 5.4 13.8 8 30.1 8 48.7 0 13.8-1.5 26.3-4.4 37.6-2.9 11.3-7.3 21.1-13.2 29.3-5.9 8.3-13.1 14.6-21.6 19-8.6 4.4-18.4 6.6-29.4 6.6s-20.8-2.3-29.5-6.8-15.9-10.9-21.7-19c-5.8-8.2-10.2-18.1-13.2-29.6s-4.5-24-4.5-37.4c0-13.7 1.5-26.3 4.6-37.7 3.1-11.4 7.6-21.2 13.5-29.2s13-14.2 21.5-18.4c8.4-4.3 18-6.4 28.7-6.4z m40.5 91.8c0-13.1-1.7-24.4-5-34-3.3-9.6-8.1-16.8-14.2-21.7-6.2-4.9-13.2-7.4-21.2-7.4-5.7 0-10.9 1.4-15.8 4.1-4.8 2.7-9 6.7-12.4 11.9-3.5 5.2-6.2 11.8-8.2 19.9-2 8.1-3 17.1-3 27.2 0 10.1 1 19.3 3 27.5s4.9 15 8.5 20.4c3.7 5.4 7.9 9.4 12.6 12.1 4.8 2.7 10 4 15.7 4 7.3 0 14-2.3 20.1-6.9 6.1-4.6 10.9-11.8 14.6-21.4 3.4-9.7 5.3-21.6 5.3-35.7zM661.3 661h29.6c3 0 5.2 0.8 6.8 2.3 1.6 1.5 2.3 3.6 2.3 6.3 0 2.4-0.6 4.3-1.8 6-1.2 1.6-3.1 2.5-5.6 2.5h-41.7c-2.8 0-5-1-6.6-3-1.6-2-2.4-4.3-2.4-7 0-1.7 0.5-4 1.5-6.9 1-2.9 2.1-5.1 3.3-6.7 5-6.6 9.6-12.3 13.6-17.1 4-4.7 6.9-7.8 8.7-9.3 3.1-2.8 5.7-5.6 7.7-8.4 2.1-2.8 3.6-5.7 4.7-8.7 1.1-3 1.6-5.9 1.6-8.7 0-3.1-0.6-5.8-1.7-8.3-1.2-2.4-2.7-4.3-4.7-5.7-2-1.3-4.1-2-6.5-2-5 0-8.8 2.8-11.7 8.3-0.4 0.7-1 2.7-1.9 5.9-0.9 3.2-1.9 5.7-3 7.4-1.1 1.7-2.8 2.6-4.9 2.6-1.9 0-3.5-0.8-4.7-2.4-1.2-1.6-1.9-3.7-1.9-6.5 0-3.3 0.6-6.8 1.8-10.4 1.2-3.6 2.9-6.9 5.2-9.8 2.3-2.9 5.3-5.3 8.8-7.1 3.6-1.8 7.8-2.7 12.6-2.7 5.8 0 10.7 1.2 14.8 3.5 2.6 1.5 5 3.7 7 6.3 2 2.7 3.6 5.8 4.7 9.3 1.1 3.5 1.7 7.2 1.7 11 0 6-1.2 11.4-3.5 16.3s-4.7 8.7-7.1 11.5c-2.4 2.8-6.5 7.1-12.2 13-5.7 5.9-9.6 10.5-11.7 13.8-0.9 1.4-1.9 2.9-2.8 4.7z" fill="#1A1A1A" /></svg>